<svg xmlns="http://www.w3.org/2000/svg" xmlns:xlink="http://www.w3.org/1999/xlink" width="72" zoomAndPan="magnify" viewBox="0 0 54 54" height="72" preserveAspectRatio="xMidYMid meet" version="1.0"><defs><clipPath id="136efb82f4"><path d="M 0.941406 0 L 53.507812 0 L 53.507812 53 L 0.941406 53 Z M 0.941406 0 " clip-rule="nonzero"/></clipPath></defs><g clip-path="url(#136efb82f4)"><path fill="#10375c" d="M 53.902344 10.09375 C 53.890625 9.625 53.621094 9.199219 53.203125 8.992188 L 35.554688 0.167969 C 35.175781 -0.0195312 34.726562 -0.0078125 34.359375 0.203125 L 26.9375 4.484375 L 19.214844 0.191406 C 18.839844 -0.015625 18.382812 -0.0195312 18.003906 0.183594 L 1.613281 9.007812 C 1.207031 9.230469 0.957031 9.652344 0.953125 10.113281 C 0.949219 10.574219 1.199219 11 1.597656 11.222656 L 8.554688 15.082031 L 1.582031 19.113281 C 1.1875 19.34375 0.945312 19.769531 0.953125 20.226562 C 0.960938 20.679688 1.210938 21.097656 1.617188 21.316406 L 5.996094 23.671875 L 5.996094 40.375 C 5.996094 40.832031 6.242188 41.253906 6.636719 41.476562 L 26.808594 52.820312 C 26.835938 52.835938 26.867188 52.84375 26.890625 52.855469 C 26.925781 52.871094 26.957031 52.882812 26.992188 52.894531 C 27.132812 52.945312 27.277344 52.984375 27.425781 52.984375 C 27.574219 52.984375 27.71875 52.945312 27.859375 52.894531 C 27.894531 52.882812 27.925781 52.871094 27.960938 52.855469 C 27.988281 52.84375 28.015625 52.835938 28.042969 52.820312 L 48.214844 41.476562 C 48.613281 41.253906 48.859375 40.832031 48.859375 40.375 L 48.859375 23.671875 L 53.238281 21.316406 C 53.640625 21.097656 53.898438 20.675781 53.902344 20.214844 C 53.902344 19.753906 53.652344 19.328125 53.253906 19.105469 L 46.160156 15.164062 L 53.253906 11.222656 C 53.660156 10.996094 53.910156 10.5625 53.902344 10.09375 Z M 18.589844 2.730469 L 24.390625 5.953125 L 11.101562 13.613281 L 4.839844 10.136719 Z M 27.425781 22.683594 L 13.671875 15.039062 L 26.960938 7.378906 L 40.96875 15.164062 Z M 11.125 16.511719 L 24.828125 24.125 L 18.589844 27.59375 L 4.800781 20.164062 Z M 8.515625 25.03125 L 18.003906 30.140625 C 18.191406 30.242188 18.394531 30.289062 18.601562 30.289062 C 18.8125 30.289062 19.023438 30.238281 19.214844 30.132812 L 26.167969 26.269531 L 26.167969 49.566406 L 8.515625 39.636719 Z M 46.335938 39.636719 L 28.6875 49.566406 L 28.6875 26.269531 L 35.640625 30.132812 C 35.828125 30.238281 36.039062 30.289062 36.25 30.289062 C 36.457031 30.289062 36.660156 30.242188 36.851562 30.140625 L 46.335938 25.03125 Z M 36.261719 27.59375 L 30.023438 24.125 L 43.5625 16.605469 L 50.011719 20.1875 Z M 43.5625 13.71875 L 29.507812 5.910156 L 35.035156 2.726562 L 49.9375 10.179688 L 43.5625 13.71875 " fill-opacity="1" fill-rule="nonzero"/></g></svg>